<mxfile host="app.diagrams.net" agent="Mozilla/5.0 (Macintosh; Intel Mac OS X 10_15_7) AppleWebKit/537.36 (KHTML, like Gecko) Chrome/138.0.0.0 Safari/537.36" version="27.2.0">
  <diagram id="Ht1M8jgEwFfnCIfOTk4-" name="Page-1">
    <mxGraphModel dx="1234" dy="824" grid="1" gridSize="10" guides="1" tooltips="1" connect="1" arrows="1" fold="1" page="1" pageScale="1" pageWidth="1169" pageHeight="827" math="0" shadow="0">
      <root>
        <mxCell id="0" />
        <mxCell id="1" parent="0" />
        <mxCell id="-SwOJ4ZzwDQcredPTqo0-1" value="AWS Cloud" style="points=[[0,0],[0.25,0],[0.5,0],[0.75,0],[1,0],[1,0.25],[1,0.5],[1,0.75],[1,1],[0.75,1],[0.5,1],[0.25,1],[0,1],[0,0.75],[0,0.5],[0,0.25]];outlineConnect=0;html=1;whiteSpace=wrap;fontSize=12;fontStyle=0;container=1;pointerEvents=0;collapsible=0;recursiveResize=0;shape=mxgraph.aws4.group;grIcon=mxgraph.aws4.group_aws_cloud_alt;fillColor=none;verticalAlign=top;align=left;spacingLeft=30;dashed=0;strokeColor=#000000;" vertex="1" parent="1">
          <mxGeometry x="160" y="80" width="1150" height="880" as="geometry" />
        </mxCell>
        <mxCell id="-SwOJ4ZzwDQcredPTqo0-58" value="Region A" style="points=[[0,0],[0.25,0],[0.5,0],[0.75,0],[1,0],[1,0.25],[1,0.5],[1,0.75],[1,1],[0.75,1],[0.5,1],[0.25,1],[0,1],[0,0.75],[0,0.5],[0,0.25]];outlineConnect=0;gradientColor=none;html=1;whiteSpace=wrap;fontSize=12;fontStyle=0;container=1;pointerEvents=0;collapsible=0;recursiveResize=0;shape=mxgraph.aws4.group;grIcon=mxgraph.aws4.group_region;strokeColor=#67AB9F;fillColor=none;verticalAlign=top;align=left;spacingLeft=30;fontColor=#147EBA;dashed=1;" vertex="1" parent="-SwOJ4ZzwDQcredPTqo0-1">
          <mxGeometry x="40" y="52" width="1070" height="788" as="geometry" />
        </mxCell>
        <mxCell id="-SwOJ4ZzwDQcredPTqo0-138" value="VPC" style="points=[[0,0],[0.25,0],[0.5,0],[0.75,0],[1,0],[1,0.25],[1,0.5],[1,0.75],[1,1],[0.75,1],[0.5,1],[0.25,1],[0,1],[0,0.75],[0,0.5],[0,0.25]];outlineConnect=0;gradientColor=none;html=1;whiteSpace=wrap;fontSize=12;fontStyle=0;container=1;pointerEvents=0;collapsible=0;recursiveResize=0;shape=mxgraph.aws4.group;grIcon=mxgraph.aws4.group_vpc2;strokeColor=#8C4FFF;fillColor=none;verticalAlign=top;align=left;spacingLeft=30;fontColor=#AAB7B8;dashed=0;" vertex="1" parent="-SwOJ4ZzwDQcredPTqo0-58">
          <mxGeometry x="60" y="40" width="970" height="710" as="geometry" />
        </mxCell>
        <mxCell id="-SwOJ4ZzwDQcredPTqo0-159" value="&lt;font style=&quot;color: rgb(0, 0, 0);&quot;&gt;Availability Zone B&lt;/font&gt;" style="fillColor=none;strokeColor=#000000;dashed=1;verticalAlign=top;fontStyle=0;fontColor=#147EBA;whiteSpace=wrap;html=1;" vertex="1" parent="-SwOJ4ZzwDQcredPTqo0-138">
          <mxGeometry x="35" y="448" width="890" height="239" as="geometry" />
        </mxCell>
        <mxCell id="-SwOJ4ZzwDQcredPTqo0-160" value="Private subnet" style="points=[[0,0],[0.25,0],[0.5,0],[0.75,0],[1,0],[1,0.25],[1,0.5],[1,0.75],[1,1],[0.75,1],[0.5,1],[0.25,1],[0,1],[0,0.75],[0,0.5],[0,0.25]];outlineConnect=0;gradientColor=none;html=1;whiteSpace=wrap;fontSize=12;fontStyle=0;container=1;pointerEvents=0;collapsible=0;recursiveResize=0;shape=mxgraph.aws4.group;grIcon=mxgraph.aws4.group_security_group;grStroke=0;strokeColor=#00A4A6;fillColor=#E6F6F7;verticalAlign=top;align=left;spacingLeft=30;fontColor=#147EBA;dashed=0;" vertex="1" parent="-SwOJ4ZzwDQcredPTqo0-138">
          <mxGeometry x="573" y="503" width="274" height="150" as="geometry" />
        </mxCell>
        <mxCell id="-SwOJ4ZzwDQcredPTqo0-161" value="Public subnet" style="points=[[0,0],[0.25,0],[0.5,0],[0.75,0],[1,0],[1,0.25],[1,0.5],[1,0.75],[1,1],[0.75,1],[0.5,1],[0.25,1],[0,1],[0,0.75],[0,0.5],[0,0.25]];outlineConnect=0;gradientColor=none;html=1;whiteSpace=wrap;fontSize=12;fontStyle=0;container=1;pointerEvents=0;collapsible=0;recursiveResize=0;shape=mxgraph.aws4.group;grIcon=mxgraph.aws4.group_security_group;grStroke=0;strokeColor=#7AA116;fillColor=#F2F6E8;verticalAlign=top;align=left;spacingLeft=30;fontColor=#248814;dashed=0;" vertex="1" parent="-SwOJ4ZzwDQcredPTqo0-138">
          <mxGeometry x="184" y="500" width="269" height="147" as="geometry" />
        </mxCell>
        <mxCell id="-SwOJ4ZzwDQcredPTqo0-162" value="" style="fontStyle=0;verticalAlign=top;align=center;spacingTop=-2;fillColor=none;rounded=0;whiteSpace=wrap;html=1;strokeColor=light-dark(#8c4fff, #ff9090);strokeWidth=2;dashed=1;container=1;collapsible=0;expand=0;recursiveResize=0;" vertex="1" parent="-SwOJ4ZzwDQcredPTqo0-138">
          <mxGeometry x="154" y="487" width="315" height="180" as="geometry" />
        </mxCell>
        <mxCell id="-SwOJ4ZzwDQcredPTqo0-163" value="Network ACL" style="sketch=0;outlineConnect=0;fontColor=#232F3E;gradientColor=none;fillColor=#8C4FFF;strokeColor=none;dashed=0;verticalLabelPosition=bottom;verticalAlign=top;align=center;html=1;fontSize=12;fontStyle=0;aspect=fixed;pointerEvents=1;shape=mxgraph.aws4.network_access_control_list;" vertex="1" parent="-SwOJ4ZzwDQcredPTqo0-162">
          <mxGeometry x="-21" y="66.5" width="40" height="40" as="geometry" />
        </mxCell>
        <mxCell id="-SwOJ4ZzwDQcredPTqo0-145" value="&lt;div&gt;&lt;b&gt;CIDR&lt;/b&gt;: 10.0.0.0/16&lt;/div&gt;" style="text;html=1;align=left;verticalAlign=middle;whiteSpace=wrap;rounded=0;fontColor=#9933FF;" vertex="1" parent="-SwOJ4ZzwDQcredPTqo0-138">
          <mxGeometry x="71" y="-1" width="204" height="30" as="geometry" />
        </mxCell>
        <mxCell id="-SwOJ4ZzwDQcredPTqo0-140" value="Availability Zone A" style="fillColor=none;strokeColor=#147EBA;dashed=1;verticalAlign=top;fontStyle=0;fontColor=#147EBA;whiteSpace=wrap;html=1;" vertex="1" parent="-SwOJ4ZzwDQcredPTqo0-138">
          <mxGeometry x="35" y="61" width="890" height="239" as="geometry" />
        </mxCell>
        <mxCell id="-SwOJ4ZzwDQcredPTqo0-141" value="Private subnet" style="points=[[0,0],[0.25,0],[0.5,0],[0.75,0],[1,0],[1,0.25],[1,0.5],[1,0.75],[1,1],[0.75,1],[0.5,1],[0.25,1],[0,1],[0,0.75],[0,0.5],[0,0.25]];outlineConnect=0;gradientColor=none;html=1;whiteSpace=wrap;fontSize=12;fontStyle=0;container=1;pointerEvents=0;collapsible=0;recursiveResize=0;shape=mxgraph.aws4.group;grIcon=mxgraph.aws4.group_security_group;grStroke=0;strokeColor=#00A4A6;fillColor=#E6F6F7;verticalAlign=top;align=left;spacingLeft=30;fontColor=#147EBA;dashed=0;" vertex="1" parent="-SwOJ4ZzwDQcredPTqo0-138">
          <mxGeometry x="573" y="116" width="274" height="150" as="geometry" />
        </mxCell>
        <mxCell id="-SwOJ4ZzwDQcredPTqo0-150" value="Public subnet" style="points=[[0,0],[0.25,0],[0.5,0],[0.75,0],[1,0],[1,0.25],[1,0.5],[1,0.75],[1,1],[0.75,1],[0.5,1],[0.25,1],[0,1],[0,0.75],[0,0.5],[0,0.25]];outlineConnect=0;gradientColor=none;html=1;whiteSpace=wrap;fontSize=12;fontStyle=0;container=1;pointerEvents=0;collapsible=0;recursiveResize=0;shape=mxgraph.aws4.group;grIcon=mxgraph.aws4.group_security_group;grStroke=0;strokeColor=#7AA116;fillColor=#F2F6E8;verticalAlign=top;align=left;spacingLeft=30;fontColor=#248814;dashed=0;" vertex="1" parent="-SwOJ4ZzwDQcredPTqo0-138">
          <mxGeometry x="184" y="113" width="269" height="147" as="geometry" />
        </mxCell>
        <mxCell id="-SwOJ4ZzwDQcredPTqo0-172" style="edgeStyle=orthogonalEdgeStyle;rounded=0;orthogonalLoop=1;jettySize=auto;html=1;" edge="1" parent="-SwOJ4ZzwDQcredPTqo0-138" source="-SwOJ4ZzwDQcredPTqo0-155" target="-SwOJ4ZzwDQcredPTqo0-171">
          <mxGeometry relative="1" as="geometry" />
        </mxCell>
        <mxCell id="-SwOJ4ZzwDQcredPTqo0-155" value="Internet Gateway" style="sketch=0;outlineConnect=0;fontColor=#232F3E;gradientColor=none;fillColor=#8C4FFF;strokeColor=none;dashed=0;verticalLabelPosition=bottom;verticalAlign=top;align=center;html=1;fontSize=12;fontStyle=0;aspect=fixed;pointerEvents=1;shape=mxgraph.aws4.internet_gateway;" vertex="1" parent="-SwOJ4ZzwDQcredPTqo0-138">
          <mxGeometry x="-30" y="342.5" width="64" height="64" as="geometry" />
        </mxCell>
        <mxCell id="-SwOJ4ZzwDQcredPTqo0-156" value="" style="fontStyle=0;verticalAlign=top;align=center;spacingTop=-2;fillColor=none;rounded=0;whiteSpace=wrap;html=1;strokeColor=light-dark(#8c4fff, #ff9090);strokeWidth=2;dashed=1;container=1;collapsible=0;expand=0;recursiveResize=0;" vertex="1" parent="-SwOJ4ZzwDQcredPTqo0-138">
          <mxGeometry x="154" y="100" width="315" height="180" as="geometry" />
        </mxCell>
        <mxCell id="-SwOJ4ZzwDQcredPTqo0-154" value="Network ACL" style="sketch=0;outlineConnect=0;fontColor=#232F3E;gradientColor=none;fillColor=#8C4FFF;strokeColor=none;dashed=0;verticalLabelPosition=bottom;verticalAlign=top;align=center;html=1;fontSize=12;fontStyle=0;aspect=fixed;pointerEvents=1;shape=mxgraph.aws4.network_access_control_list;" vertex="1" parent="-SwOJ4ZzwDQcredPTqo0-156">
          <mxGeometry x="-21" y="66.5" width="40" height="40" as="geometry" />
        </mxCell>
        <mxCell id="-SwOJ4ZzwDQcredPTqo0-173" value="Security Group" style="fontStyle=0;verticalAlign=top;align=center;spacingTop=-2;fillColor=none;rounded=0;whiteSpace=wrap;html=1;strokeColor=#FF0000;strokeWidth=2;dashed=1;container=1;collapsible=0;expand=0;recursiveResize=0;" vertex="1" parent="-SwOJ4ZzwDQcredPTqo0-156">
          <mxGeometry x="60" y="43" width="220" height="487" as="geometry" />
        </mxCell>
        <mxCell id="-SwOJ4ZzwDQcredPTqo0-174" value="ALB" style="sketch=0;outlineConnect=0;fontColor=#232F3E;gradientColor=none;fillColor=#8C4FFF;strokeColor=none;dashed=0;verticalLabelPosition=bottom;verticalAlign=top;align=center;html=1;fontSize=12;fontStyle=0;aspect=fixed;pointerEvents=1;shape=mxgraph.aws4.application_load_balancer;" vertex="1" parent="-SwOJ4ZzwDQcredPTqo0-173">
          <mxGeometry x="83.5" y="44" width="50" height="50" as="geometry" />
        </mxCell>
        <mxCell id="-SwOJ4ZzwDQcredPTqo0-177" value="" style="fontStyle=0;verticalAlign=top;align=center;spacingTop=-2;fillColor=none;rounded=0;whiteSpace=wrap;html=1;strokeColor=light-dark(#8c4fff, #ff9090);strokeWidth=2;dashed=1;container=1;collapsible=0;expand=0;recursiveResize=0;" vertex="1" parent="-SwOJ4ZzwDQcredPTqo0-173">
          <mxGeometry x="37" y="25" width="150" height="455" as="geometry" />
        </mxCell>
        <mxCell id="-SwOJ4ZzwDQcredPTqo0-176" value="ELB" style="sketch=0;points=[[0,0,0],[0.25,0,0],[0.5,0,0],[0.75,0,0],[1,0,0],[0,1,0],[0.25,1,0],[0.5,1,0],[0.75,1,0],[1,1,0],[0,0.25,0],[0,0.5,0],[0,0.75,0],[1,0.25,0],[1,0.5,0],[1,0.75,0]];outlineConnect=0;fontColor=#232F3E;fillColor=#8C4FFF;strokeColor=#ffffff;dashed=0;verticalLabelPosition=bottom;verticalAlign=top;align=center;html=1;fontSize=12;fontStyle=0;aspect=fixed;shape=mxgraph.aws4.resourceIcon;resIcon=mxgraph.aws4.elastic_load_balancing;" vertex="1" parent="-SwOJ4ZzwDQcredPTqo0-173">
          <mxGeometry x="37" y="202" width="60" height="60" as="geometry" />
        </mxCell>
        <mxCell id="-SwOJ4ZzwDQcredPTqo0-157" value="" style="fontStyle=0;verticalAlign=top;align=center;spacingTop=-2;fillColor=none;rounded=0;whiteSpace=wrap;html=1;strokeColor=light-dark(#8c4fff, #ff9090);strokeWidth=2;dashed=1;container=1;collapsible=0;expand=0;recursiveResize=0;" vertex="1" parent="-SwOJ4ZzwDQcredPTqo0-138">
          <mxGeometry x="552.5" y="101" width="315" height="180" as="geometry" />
        </mxCell>
        <mxCell id="-SwOJ4ZzwDQcredPTqo0-158" value="Network ACL" style="sketch=0;outlineConnect=0;fontColor=#232F3E;gradientColor=none;fillColor=#8C4FFF;strokeColor=none;dashed=0;verticalLabelPosition=bottom;verticalAlign=top;align=center;html=1;fontSize=12;fontStyle=0;aspect=fixed;pointerEvents=1;shape=mxgraph.aws4.network_access_control_list;" vertex="1" parent="-SwOJ4ZzwDQcredPTqo0-157">
          <mxGeometry x="-21" y="66.5" width="40" height="40" as="geometry" />
        </mxCell>
        <mxCell id="-SwOJ4ZzwDQcredPTqo0-168" value="EC2 server" style="sketch=0;outlineConnect=0;fontColor=#232F3E;gradientColor=none;fillColor=#ED7100;strokeColor=none;dashed=0;verticalLabelPosition=bottom;verticalAlign=top;align=center;html=1;fontSize=12;fontStyle=0;aspect=fixed;pointerEvents=1;shape=mxgraph.aws4.ec2_m1_mac_instance;" vertex="1" parent="-SwOJ4ZzwDQcredPTqo0-157">
          <mxGeometry x="133.5" y="65" width="48" height="48" as="geometry" />
        </mxCell>
        <mxCell id="-SwOJ4ZzwDQcredPTqo0-184" value="Security Group" style="fontStyle=0;verticalAlign=top;align=center;spacingTop=-2;fillColor=none;rounded=0;whiteSpace=wrap;html=1;strokeColor=#FF0000;strokeWidth=2;dashed=1;container=1;collapsible=0;expand=0;recursiveResize=0;" vertex="1" parent="-SwOJ4ZzwDQcredPTqo0-157">
          <mxGeometry x="68.5" y="42" width="200" height="488" as="geometry" />
        </mxCell>
        <mxCell id="-SwOJ4ZzwDQcredPTqo0-164" value="" style="fontStyle=0;verticalAlign=top;align=center;spacingTop=-2;fillColor=none;rounded=0;whiteSpace=wrap;html=1;strokeColor=light-dark(#8c4fff, #ff9090);strokeWidth=2;dashed=1;container=1;collapsible=0;expand=0;recursiveResize=0;" vertex="1" parent="-SwOJ4ZzwDQcredPTqo0-138">
          <mxGeometry x="552.5" y="488" width="315" height="180" as="geometry" />
        </mxCell>
        <mxCell id="-SwOJ4ZzwDQcredPTqo0-165" value="Network ACL" style="sketch=0;outlineConnect=0;fontColor=#232F3E;gradientColor=none;fillColor=#8C4FFF;strokeColor=none;dashed=0;verticalLabelPosition=bottom;verticalAlign=top;align=center;html=1;fontSize=12;fontStyle=0;aspect=fixed;pointerEvents=1;shape=mxgraph.aws4.network_access_control_list;" vertex="1" parent="-SwOJ4ZzwDQcredPTqo0-164">
          <mxGeometry x="-21" y="66.5" width="40" height="40" as="geometry" />
        </mxCell>
        <mxCell id="-SwOJ4ZzwDQcredPTqo0-170" value="EC2 server" style="sketch=0;outlineConnect=0;fontColor=#232F3E;gradientColor=none;fillColor=#ED7100;strokeColor=none;dashed=0;verticalLabelPosition=bottom;verticalAlign=top;align=center;html=1;fontSize=12;fontStyle=0;aspect=fixed;pointerEvents=1;shape=mxgraph.aws4.ec2_m1_mac_instance;" vertex="1" parent="-SwOJ4ZzwDQcredPTqo0-164">
          <mxGeometry x="133.5" y="62.5" width="48" height="48" as="geometry" />
        </mxCell>
        <mxCell id="-SwOJ4ZzwDQcredPTqo0-171" value="Route table" style="sketch=0;outlineConnect=0;fontColor=#232F3E;gradientColor=none;fillColor=#8C4FFF;strokeColor=none;dashed=0;verticalLabelPosition=bottom;verticalAlign=top;align=center;html=1;fontSize=12;fontStyle=0;aspect=fixed;pointerEvents=1;shape=mxgraph.aws4.route_table;" vertex="1" parent="-SwOJ4ZzwDQcredPTqo0-138">
          <mxGeometry x="118.61000000000001" y="348" width="54.39" height="53" as="geometry" />
        </mxCell>
        <mxCell id="-SwOJ4ZzwDQcredPTqo0-175" value="ALB" style="sketch=0;outlineConnect=0;fontColor=#232F3E;gradientColor=none;fillColor=#8C4FFF;strokeColor=none;dashed=0;verticalLabelPosition=bottom;verticalAlign=top;align=center;html=1;fontSize=12;fontStyle=0;aspect=fixed;pointerEvents=1;shape=mxgraph.aws4.application_load_balancer;" vertex="1" parent="-SwOJ4ZzwDQcredPTqo0-138">
          <mxGeometry x="295.5" y="539.5" width="50" height="50" as="geometry" />
        </mxCell>
        <mxCell id="-SwOJ4ZzwDQcredPTqo0-186" style="edgeStyle=orthogonalEdgeStyle;rounded=0;orthogonalLoop=1;jettySize=auto;html=1;startArrow=classic;startFill=1;" edge="1" parent="-SwOJ4ZzwDQcredPTqo0-138" target="-SwOJ4ZzwDQcredPTqo0-154">
          <mxGeometry relative="1" as="geometry">
            <mxPoint x="75" y="158" as="sourcePoint" />
            <Array as="points">
              <mxPoint x="75" y="187" />
            </Array>
          </mxGeometry>
        </mxCell>
        <mxCell id="-SwOJ4ZzwDQcredPTqo0-185" value="NACL rules" style="sketch=0;outlineConnect=0;fontColor=#232F3E;gradientColor=none;fillColor=#8C4FFF;strokeColor=none;dashed=0;verticalLabelPosition=bottom;verticalAlign=top;align=center;html=1;fontSize=12;fontStyle=0;aspect=fixed;pointerEvents=1;shape=mxgraph.aws4.route_table;" vertex="1" parent="-SwOJ4ZzwDQcredPTqo0-138">
          <mxGeometry x="55.000000000000014" y="101.00000000000001" width="40" height="38.98" as="geometry" />
        </mxCell>
        <mxCell id="-SwOJ4ZzwDQcredPTqo0-187" value="NACL rules" style="sketch=0;outlineConnect=0;fontColor=#232F3E;gradientColor=none;fillColor=#8C4FFF;strokeColor=none;dashed=0;verticalLabelPosition=bottom;verticalAlign=top;align=center;html=1;fontSize=12;fontStyle=0;aspect=fixed;pointerEvents=1;shape=mxgraph.aws4.route_table;" vertex="1" parent="-SwOJ4ZzwDQcredPTqo0-138">
          <mxGeometry x="55" y="617" width="40" height="38.98" as="geometry" />
        </mxCell>
        <mxCell id="-SwOJ4ZzwDQcredPTqo0-190" style="edgeStyle=orthogonalEdgeStyle;rounded=0;orthogonalLoop=1;jettySize=auto;html=1;startArrow=classic;startFill=1;" edge="1" parent="-SwOJ4ZzwDQcredPTqo0-138" source="-SwOJ4ZzwDQcredPTqo0-163" target="-SwOJ4ZzwDQcredPTqo0-187">
          <mxGeometry relative="1" as="geometry" />
        </mxCell>
        <mxCell id="-SwOJ4ZzwDQcredPTqo0-192" style="edgeStyle=orthogonalEdgeStyle;rounded=0;orthogonalLoop=1;jettySize=auto;html=1;entryX=0;entryY=0.5;entryDx=0;entryDy=0;entryPerimeter=0;" edge="1" parent="-SwOJ4ZzwDQcredPTqo0-138" source="-SwOJ4ZzwDQcredPTqo0-171" target="-SwOJ4ZzwDQcredPTqo0-176">
          <mxGeometry relative="1" as="geometry" />
        </mxCell>
        <mxCell id="-SwOJ4ZzwDQcredPTqo0-193" style="edgeStyle=orthogonalEdgeStyle;rounded=0;orthogonalLoop=1;jettySize=auto;html=1;entryX=0.45;entryY=0.277;entryDx=0;entryDy=0;entryPerimeter=0;" edge="1" parent="-SwOJ4ZzwDQcredPTqo0-138" source="-SwOJ4ZzwDQcredPTqo0-177" target="-SwOJ4ZzwDQcredPTqo0-184">
          <mxGeometry relative="1" as="geometry">
            <Array as="points">
              <mxPoint x="711" y="348" />
            </Array>
          </mxGeometry>
        </mxCell>
        <mxCell id="-SwOJ4ZzwDQcredPTqo0-195" style="edgeStyle=orthogonalEdgeStyle;rounded=0;orthogonalLoop=1;jettySize=auto;html=1;entryX=0.5;entryY=0;entryDx=0;entryDy=0;" edge="1" parent="-SwOJ4ZzwDQcredPTqo0-138" source="-SwOJ4ZzwDQcredPTqo0-177" target="-SwOJ4ZzwDQcredPTqo0-164">
          <mxGeometry relative="1" as="geometry">
            <Array as="points">
              <mxPoint x="710" y="408" />
            </Array>
          </mxGeometry>
        </mxCell>
        <mxCell id="-SwOJ4ZzwDQcredPTqo0-201" value="NACL rules" style="sketch=0;outlineConnect=0;fontColor=#232F3E;gradientColor=none;fillColor=#8C4FFF;strokeColor=none;dashed=0;verticalLabelPosition=bottom;verticalAlign=top;align=center;html=1;fontSize=12;fontStyle=0;aspect=fixed;pointerEvents=1;shape=mxgraph.aws4.route_table;" vertex="1" parent="-SwOJ4ZzwDQcredPTqo0-138">
          <mxGeometry x="490" y="101" width="40" height="38.98" as="geometry" />
        </mxCell>
        <mxCell id="-SwOJ4ZzwDQcredPTqo0-202" style="edgeStyle=orthogonalEdgeStyle;rounded=0;orthogonalLoop=1;jettySize=auto;html=1;startArrow=classic;startFill=1;" edge="1" parent="-SwOJ4ZzwDQcredPTqo0-138" source="-SwOJ4ZzwDQcredPTqo0-158">
          <mxGeometry relative="1" as="geometry">
            <mxPoint x="510" y="158" as="targetPoint" />
          </mxGeometry>
        </mxCell>
        <mxCell id="-SwOJ4ZzwDQcredPTqo0-203" value="NACL rules" style="sketch=0;outlineConnect=0;fontColor=#232F3E;gradientColor=none;fillColor=#8C4FFF;strokeColor=none;dashed=0;verticalLabelPosition=bottom;verticalAlign=top;align=center;html=1;fontSize=12;fontStyle=0;aspect=fixed;pointerEvents=1;shape=mxgraph.aws4.route_table;" vertex="1" parent="-SwOJ4ZzwDQcredPTqo0-138">
          <mxGeometry x="490" y="626.02" width="40" height="38.98" as="geometry" />
        </mxCell>
        <mxCell id="-SwOJ4ZzwDQcredPTqo0-204" style="edgeStyle=orthogonalEdgeStyle;rounded=0;orthogonalLoop=1;jettySize=auto;html=1;startArrow=classic;startFill=1;" edge="1" parent="-SwOJ4ZzwDQcredPTqo0-138" source="-SwOJ4ZzwDQcredPTqo0-165" target="-SwOJ4ZzwDQcredPTqo0-203">
          <mxGeometry relative="1" as="geometry" />
        </mxCell>
        <mxCell id="-SwOJ4ZzwDQcredPTqo0-166" style="edgeStyle=orthogonalEdgeStyle;rounded=0;orthogonalLoop=1;jettySize=auto;html=1;" edge="1" parent="1" source="-SwOJ4ZzwDQcredPTqo0-137" target="-SwOJ4ZzwDQcredPTqo0-155">
          <mxGeometry relative="1" as="geometry" />
        </mxCell>
        <mxCell id="-SwOJ4ZzwDQcredPTqo0-137" value="Internet" style="outlineConnect=0;dashed=0;verticalLabelPosition=bottom;verticalAlign=top;align=center;html=1;shape=mxgraph.aws3.internet_2;fillColor=#D2D3D3;gradientColor=none;" vertex="1" parent="1">
          <mxGeometry x="40" y="519.5" width="79.5" height="54" as="geometry" />
        </mxCell>
        <mxCell id="-SwOJ4ZzwDQcredPTqo0-197" style="edgeStyle=orthogonalEdgeStyle;rounded=0;orthogonalLoop=1;jettySize=auto;html=1;" edge="1" parent="1" source="-SwOJ4ZzwDQcredPTqo0-196">
          <mxGeometry relative="1" as="geometry">
            <mxPoint x="80" y="600" as="targetPoint" />
          </mxGeometry>
        </mxCell>
        <mxCell id="-SwOJ4ZzwDQcredPTqo0-196" value="Users" style="outlineConnect=0;dashed=0;verticalLabelPosition=bottom;verticalAlign=top;align=center;html=1;shape=mxgraph.aws3.users;fillColor=#D2D3D3;gradientColor=none;" vertex="1" parent="1">
          <mxGeometry x="47" y="675" width="66" height="63" as="geometry" />
        </mxCell>
        <mxCell id="-SwOJ4ZzwDQcredPTqo0-199" style="edgeStyle=orthogonalEdgeStyle;rounded=0;orthogonalLoop=1;jettySize=auto;html=1;strokeColor=#FF0000;" edge="1" parent="1" target="-SwOJ4ZzwDQcredPTqo0-137">
          <mxGeometry relative="1" as="geometry">
            <mxPoint x="80" y="450" as="sourcePoint" />
          </mxGeometry>
        </mxCell>
        <mxCell id="-SwOJ4ZzwDQcredPTqo0-198" value="Attackers" style="sketch=0;outlineConnect=0;fontColor=#232F3E;gradientColor=none;fillColor=#232F3D;strokeColor=none;dashed=0;verticalLabelPosition=bottom;verticalAlign=top;align=center;html=1;fontSize=12;fontStyle=0;aspect=fixed;pointerEvents=1;shape=mxgraph.aws4.users;" vertex="1" parent="1">
          <mxGeometry x="41" y="350" width="78" height="78" as="geometry" />
        </mxCell>
      </root>
    </mxGraphModel>
  </diagram>
</mxfile>
